#!OML:ASF \\Waltz\H\Terrain\Patient Classification 1\Animal2\Wednesday\Animal2.ASF
:FULLY-SPECIFIED
:DEGREES
2890
root 11.0399 17.8848 13.1122 4.40177 -0.680164 1.2982
lowerback 3.12489 -1.35255 1.42606
upperback -6.77713 -1.73629 -0.253903
thorax -8.93873 -0.961337 -0.877628
lowerneck 6.07681 5.56272 16.8153
upperneck 2.89508 9.25588 -27.6702
head 1.91604 4.90876 -11.7245
rclavicle -9.7156e-015 5.96354e-015
rhumerus -47.4161 1.44286 -77.7842
rradius 118.597
rwrist 27.2071
rhand 19.4095 23.891
rfingers 7.12502
rthumb 43.9846 0.00242865
lclavicle -9.7156e-015 5.96354e-015
lhumerus -50.2595 8.67777 50.3022
lradius 127.609
lwrist -12.9707
lhand -50.6772 25.1425
lfingers 7.12502
lthumb -23.239 53.7603
rfemur -14.9914 -1.37229 18.2268
rtibia 32.9487
rfoot -19.7424 5.13204
rtoes 26.6275
lfemur -22.6253 -3.18886 -14.6864
ltibia 26.1827
lfoot -14.3217 5.28971
ltoes -36.5881
2891
root 11.0659 17.8709 13.1647 4.39835 -0.782871 1.11969
lowerback 3.07121 -1.45461 1.48176
upperback -6.65405 -1.86554 -0.185787
thorax -8.77545 -1.0244 -0.826024
lowerneck 5.8924 5.78468 17.0086
upperneck 2.91823 9.56171 -27.5473
head 2.03506 5.04862 -11.6864
rclavicle 1.73937e-016 -8.74653e-015
rhumerus -46.7722 1.58939 -77.6714
rradius 118.74
rwrist 27.5698
rhand 19.6609 23.5991
rfingers 7.12502
rthumb 44.219 -0.201608
lclavicle 1.73937e-016 -8.74653e-015
lhumerus -49.8089 8.31929 51.0207
lradius 126.971
lwrist -13.4296
lhand -49.4075 23.7761
lfingers 7.12502
lthumb -22.0203 52.5425
rfemur -14.7045 -1.41945 18.3081
rtibia 32.8233
rfoot -20.0954 5.5346
rtoes 27.5219
lfemur -22.6571 -3.34269 -14.6268
ltibia 26.1735
lfoot -12.6147 5.56852
ltoes -38.3467
2892
root 11.0931 17.859 13.214 4.37579 -0.890413 0.920846
lowerback 2.71052 -1.55564 1.56297
upperback -6.36748 -1.99386 -0.0739436
thorax -8.2526 -1.08489 -0.755281
lowerneck 5.91263 6.00895 17.113
upperneck 2.68448 9.84005 -27.4619
head 2.03729 5.19676 -11.6546
rclavicle 1.00386e-014 -9.14409e-015
rhumerus -46.394 1.11343 -77.4915
rradius 118.894
rwrist 28.1204
rhand 19.362 24.0594
rfingers 7.12502
rthumb 43.9403 0.154331
lclavicle 1.00386e-014 -9.14409e-015
lhumerus -49.3284 8.05222 51.9227
lradius 126.327
lwrist -14.0781
lhand -49.2894 24.0465
lfingers 7.12502
lthumb -21.907 52.8263
rfemur -14.3711 -1.33541 18.424
rtibia 32.6136
rfoot -20.5826 5.49484
rtoes 26.2527
lfemur -22.6359 -3.51342 -14.5394
ltibia 26.3215
lfoot -10.836 4.91631
ltoes -36.4776
2893
root 11.1202 17.8439 13.2583 4.44103 -1.03452 0.591469
lowerback 3.03622 -1.70953 1.66558
upperback -6.77785 -2.16484 0.220355
thorax -8.89032 -1.16871 -0.466167
lowerneck 6.73402 6.11023 17.1671
upperneck 2.88002 10.1245 -27.4312
head 2.01263 5.3879 -11.6756
rclavicle -8.94531e-015 -8.15017e-015
rhumerus -47.0876 1.25415 -77.1167
rradius 119.12
rwrist 28.5605
rhand 18.8731 24.4269
rfingers 7.12502
rthumb 43.4839 0.354149
lclavicle -8.94531e-015 -8.15017e-015
lhumerus -50.0983 7.41172 52.8817
lradius 125.678
lwrist -14.4494
lhand -49.5723 24.2575
lfingers 7.12502
lthumb -22.1786 53.0052
rfemur -14.1317 -1.16378 18.6974
rtibia 32.3554
rfoot -20.8462 5.28384
rtoes 24.53
lfemur -22.6559 -3.62709 -14.3006
ltibia 26.5835
lfoot -9.68369 3.79628
ltoes -32.747
2894
root 11.1496 17.8286 13.305 4.56236 -1.18446 0.123291
lowerback 3.10463 -1.81037 2.00162
upperback -7.00633 -2.25424 0.453797
thorax -9.19001 -1.2288 -0.389134
lowerneck 7.11604 6.19969 17.3184
upperneck 3.2069 10.3708 -27.3767
head 2.09904 5.52709 -11.6882
rclavicle -9.44227e-015 1.98785e-016
rhumerus -47.1925 1.32315 -76.8138
rradius 119.281
rwrist 28.8699
rhand 18.7308 24.417
rfingers 7.12502
rthumb 43.351 0.296208
lclavicle -9.44227e-015 1.98785e-016
lhumerus -50.4437 6.85415 53.9136
lradius 124.89
lwrist -14.3052
lhand -49.5403 22.3651
lfingers 7.12502
lthumb -22.1478 51.1165
rfemur -13.9442 -1.01326 19.1111
rtibia 32.082
rfoot -21.0009 5.19913
rtoes 23.8143
lfemur -22.6708 -3.49295 -13.9554
ltibia 26.8747
lfoot -9.59088 3.08823
ltoes -32.6146
2895
root 11.1805 17.824 13.3533 4.56612 -1.35326 -0.169645
lowerback 3.07456 -1.83255 2.12975
upperback -6.99315 -2.25869 0.664531
thorax -9.1546 -1.23104 -0.238676
lowerneck 7.08943 6.26762 17.3258
upperneck 3.50853 10.5213 -27.345
head 2.22217 5.59006 -11.6676
rclavicle -1.99779e-014 1.59028e-015
rhumerus -47.1174 1.01393 -76.2668
rradius 119.518
rwrist 28.9437
rhand 18.5206 24.5803
rfingers 7.12502
rthumb 43.1545 0.389145
lclavicle -1.99779e-014 1.59028e-015
lhumerus -50.4319 6.30208 55.3914
lradius 124.067
lwrist -13.9372
lhand -49.9531 20.7295
lfingers 7.12502
lthumb -22.5441 49.4333
rfemur -13.6573 -0.72588 19.3347
rtibia 31.8276
rfoot -21.0462 5.0135
rtoes 24.2718
lfemur -22.5359 -3.5251 -13.7742
ltibia 27.1334
lfoot -9.81397 3.72279
ltoes -35.2959
2896
root 11.2149 17.8312 13.3979 4.51075 -1.5105 -0.170699
lowerback 3.0395 -1.85394 1.99595
upperback -6.86096 -2.29226 0.767556
thorax -8.97828 -1.23255 -0.0566059
lowerneck 6.77035 6.36741 17.2646
upperneck 3.79473 10.6687 -27.2482
head 2.38565 5.63038 -11.5938
rclavicle 1.93815e-015 5.56597e-015
rhumerus -46.8881 0.557394 -75.6665
rradius 119.7
rwrist 29.0135
rhand 18.1496 24.5609
rfingers 7.12502
rthumb 42.8076 0.247298
lclavicle 1.93815e-015 5.56597e-015
lhumerus -50.2332 5.69491 57.082
lradius 123.052
lwrist -14.0324
lhand -50.4226 20.9252
lfingers 7.12502
lthumb -22.9946 49.5736
rfemur -13.3724 -0.421302 19.2152
rtibia 31.6372
rfoot -20.9802 4.78274
rtoes 25.2796
lfemur -22.3469 -3.73064 -13.8938
ltibia 27.3127
lfoot -9.83116 4.74375
ltoes -37.006
2897
root 11.2538 17.8408 13.4417 4.64309 -1.58867 -0.0430719
lowerback 2.91991 -1.98316 1.85671
upperback -6.82505 -2.48391 0.723918
thorax -8.86711 -1.31861 -0.00987519
lowerneck 6.2163 6.63247 17.3504
upperneck 4.35778 11.0657 -26.8484
head 2.7202 5.77146 -11.4032
rclavicle 4.59193e-014 1.98785e-015
rhumerus -46.4834 0.146723 -75.4606
rradius 119.697
rwrist 29.288
rhand 17.7307 24.2611
rfingers 7.12502
rthumb 42.4155 -0.188226
lclavicle 4.59193e-014 1.98785e-015
lhumerus -50.2589 5.25276 58.3119
lradius 122.043
lwrist -14.6576
lhand -49.5521 20.7222
lfingers 7.12502
lthumb -22.1591 49.4722
rfemur -13.3358 -0.338474 18.9269
rtibia 31.5301
rfoot -20.9076 4.68228
rtoes 25.5177
lfemur -22.369 -3.71932 -14.192
ltibia 27.4088
lfoot -9.92663 4.74146
ltoes -36.0088
2898
root 11.2908 17.8497 13.4862 4.88082 -1.6647 0.112079
lowerback 2.72275 -2.164 1.65261
upperback -6.8129 -2.75297 0.651296
thorax -8.73512 -1.44002 0.0471961
lowerneck 5.57636 7.01667 17.6428
upperneck 5.07743 11.6533 -26.3994
head 3.16951 6.00272 -11.2132
rclavicle -3.27498e-014 -1.43125e-014
rhumerus -45.9674 -0.255782 -75.4273
rradius 119.585
rwrist 29.4027
rhand 17.1644 24.2739
rfingers 7.12502
rthumb 41.8849 -0.354612
lclavicle -3.27498e-014 -1.43125e-014
lhumerus -50.3651 5.03581 59.3741
lradius 121.066
lwrist -15.3289
lhand -48.6361 20.8857
lfingers 7.12502
lthumb -21.2795 49.7375
rfemur -13.4452 -0.339215 18.6241
rtibia 31.541
rfoot -20.897 4.44015
rtoes 24.4451
lfemur -22.4767 -3.63076 -14.5188
ltibia 27.4241
lfoot -10.0939 4.45603
ltoes -35.0948
2899
root 11.3268 17.8587 13.5341 5.064 -1.82096 0.347455
lowerback 2.54943 -2.24164 1.30509
upperback -6.98752 -2.88651 0.632366
thorax -8.80803 -1.48398 0.232215
lowerneck 5.7962 7.13421 17.8307
upperneck 5.5519 11.9232 -26.0907
head 3.32047 6.14283 -11.1249
rclavicle 3.16565e-014 -2.78299e-015
rhumerus -46.11 -0.682091 -75.0717
rradius 119.614
rwrist 29.4069
rhand 16.2442 24.4796
rfingers 7.12502
rthumb 41.0215 -0.429977
lclavicle 3.16565e-014 -2.78299e-015
lhumerus -50.7216 4.53656 60.7434
lradius 120.038
lwrist -15.7624
lhand -48.3646 21.3993
lfingers 7.12502
lthumb -21.0187 50.2803
rfemur -13.472 -0.275532 18.2312
rtibia 31.5845
rfoot -20.8773 4.07764
rtoes 22.8733
lfemur -22.4781 -3.68963 -14.9134
ltibia 27.4302
lfoot -10.1882 4.74657
ltoes -36.3012
2900
root 11.3627 17.8681 13.5847 5.2359 -2.08723 0.891229
lowerback 2.30195 -2.31009 0.614685
upperback -7.10273 -3.03919 0.512965
thorax -8.75726 -1.51759 0.4979
lowerneck 5.97143 7.24962 18.1058
upperneck 5.79938 12.1457 -25.7862
head 3.41095 6.26581 -11.0528
rclavicle -8.10048e-015 3.97569e-016
rhumerus -46.3182 -1.17837 -74.8394
rradius 119.733
rwrist 29.6048
rhand 15.2046 24.4182
rfingers 7.12502
rthumb 40.0442 -0.794468
lclavicle -8.10048e-015 3.97569e-016
lhumerus -51.114 4.15922 61.9582
lradius 119.085
lwrist -16.0487
lhand -47.5242 20.6221
lfingers 7.12502
lthumb -20.2111 49.5906
rfemur -13.4853 -0.0222471 17.4967
rtibia 31.5475
rfoot -20.794 3.9179
rtoes 22.4398
lfemur -22.4976 -3.68713 -15.6214
ltibia 27.5101
lfoot -10.2093 4.98892
ltoes -36.6464
2901
root 11.421 17.8845 13.6267 5.45246 -1.93341 1.17677
lowerback 2.1315 -2.51395 0.548193
upperback -7.19697 -3.3302 0.377407
thorax -8.76498 -1.66225 0.415673
lowerneck 6.01315 7.43328 18.1759
upperneck 5.96305 12.3941 -25.2003
head 3.47589 6.39197 -10.8264
rclavicle 2.68359e-015 1.59028e-015
rhumerus -46.5203 -1.67541 -74.6744
rradius 119.755
rwrist 29.6625
rhand 13.9898 23.7275
rfingers 7.12502
rthumb 38.8999 -1.82114
lclavicle 2.68359e-015 1.59028e-015
lhumerus -51.525 3.84798 63.1622
lradius 118.262
lwrist -16.4459
lhand -46.1025 19.2526
lfingers 7.12502
lthumb -18.8443 48.3598
rfemur -13.3918 -0.845562 16.9139
rtibia 31.3758
rfoot -20.7085 4.61236
rtoes 23.0002
lfemur -22.6758 -3.51513 -16.1837
ltibia 27.6759
lfoot -10.4567 4.34677
ltoes -35.0022
2902
root 11.4527 17.8959 13.6852 5.45415 -2.15608 0.712148
lowerback 2.04092 -2.58676 0.890311
upperback -7.17017 -3.39935 0.476931
thorax -8.69746 -1.71647 0.331652
lowerneck 5.84837 7.62004 18.0986
upperneck 6.28912 12.6155 -24.3929
head 3.59133 6.48626 -10.4862
rclavicle -1.52567e-014 1.19271e-014
rhumerus -46.7365 -2.13715 -74.5018
rradius 119.741
rwrist 29.4847
rhand 12.5207 22.929
rfingers 7.12502
rthumb 37.513 -3.00105
lclavicle -1.52567e-014 1.19271e-014
lhumerus -51.939 3.59434 64.3134
lradius 117.547
lwrist -16.9528
lhand -45.803 17.7864
lfingers 7.12502
lthumb -18.5562 46.9214
rfemur -12.9754 -0.496671 17.3326
rtibia 31.03
rfoot -20.7759 4.2772
rtoes 22.1361
lfemur -22.606 -3.0635 -15.7965
ltibia 27.9702
lfoot -10.9127 3.77925
ltoes -33.1487
2903
root 11.4807 17.8989 13.7423 5.36013 -2.55348 0.232237
lowerback 2.06559 -2.58792 1.10761
upperback -7.11385 -3.37538 0.632713
thorax -8.65393 -1.71338 0.371798
lowerneck 5.61217 7.8106 18.0649
upperneck 6.63933 12.8369 -23.6088
head 3.72947 6.57896 -10.1622
rclavicle -1.67476e-014 -4.96962e-015
rhumerus -46.9751 -2.68494 -74.1653
rradius 119.928
rwrist 29.3019
rhand 11.5602 22.861
rfingers 7.12502
rthumb 36.6046 -3.30464
lclavicle -1.67476e-014 -4.96962e-015
lhumerus -52.4015 3.46624 65.5053
lradius 116.929
lwrist -17.4902
lhand -46.0793 17.1968
lfingers 7.12502
lthumb -18.822 46.3062
rfemur -12.4191 0.131566 17.81
rtibia 30.4605
rfoot -20.7673 3.59473
rtoes 20.0285
lfemur -22.4901 -2.76347 -15.3383
ltibia 28.4462
lfoot -11.355 3.82135
ltoes -33.6544
